<svg width="375" height="804" viewBox="0 0 375 804" fill="none" xmlns="http://www.w3.org/2000/svg">
<g clip-path="url(#clip0_235_286)">
<rect width="375" height="804" fill="#F5F5F9"/>
<g clip-path="url(#clip1_235_286)">
<path opacity="0.24" d="M-24.5027 579C-171.232 579 -297 706.099 -297 851.497C-297 995.232 -171.232 1121 -24.5027 1121C120.896 1121 245 995.232 245 851.497C245 706.099 120.563 579 -24.5027 579Z" fill="#8DE2DD"/>
<path d="M303.155 658C287.994 658 275 671.132 275 686.155C275 701.006 287.994 714 303.155 714C318.177 714 331 701.006 331 686.155C331 671.132 318.143 658 303.155 658Z" fill="#FF8283"/>
<path d="M89.558 693C83.8729 693 79 697.924 79 703.558C79 709.127 83.8729 714 89.558 714C95.1915 714 100 709.127 100 703.558C100 697.924 95.1786 693 89.558 693Z" fill="#5067DC"/>
</g>
<g clip-path="url(#clip2_235_286)">
<path opacity="0.24" d="M402.785 -188C325.901 -188 260 -121.402 260 -45.2155C260 30.0994 325.901 96 402.785 96C478.971 96 544 30.0994 544 -45.2155C544 -121.402 478.797 -188 402.785 -188Z" fill="#FFBBBB"/>
</g>
</g>
<defs>
<clipPath id="clip0_235_286">
<rect width="375" height="804" fill="white"/>
</clipPath>
<clipPath id="clip1_235_286">
<rect width="342" height="237" fill="white" transform="translate(0 567)"/>
</clipPath>
<clipPath id="clip2_235_286">
<rect width="142" height="96" fill="white" transform="translate(234)"/>
</clipPath>
</defs>
</svg>
